<svg height="300" width="200"><g transform="translate(20, 20)"><g class="dummy-layer" /><g class="main-layer" transform="translate(0, 0)"><g><line class="timeline" style="stroke-width: 2px; stroke: #222;" y2="260" /></g><g class="axis-layer"><g class="tick" style="opacity: 1;" transform="translate(0, 0.0000000000000000)"><line style="stroke-width: 1px; stroke: #222;" x2="-6" y2="0" /><text dy=".32em" style="text-anchor: end;" x="-9" y="0">April</text></g><g class="tick" style="opacity: 1;" transform="translate(0, 18.4982245822067313)"><line style="stroke-width: 1px; stroke: #222;" x2="-6" y2="0" /><text dy=".32em" style="text-anchor: end;" x="-9" y="0">July</text></g><g class="tick" style="opacity: 1;" transform="translate(0, 37.2081962406749867)"><line style="stroke-width: 1px; stroke: #222;" x2="-6" y2="0" /><text dy=".32em" style="text-anchor: end;" x="-9" y="0">October</text></g><g class="tick" style="opacity: 1;" transform="translate(0, 55.9096980160927828)"><line style="stroke-width: 1px; stroke: #222;" x2="-6" y2="0" /><text dy=".32em" style="text-anchor: end;" x="-9" y="0">2015</text></g><g class="tick" style="opacity: 1;" transform="translate(0, 74.1961755220379899)"><line style="stroke-width: 1px; stroke: #222;" x2="-6" y2="0" /><text dy=".32em" style="text-anchor: end;" x="-9" y="0">April</text></g><g class="tick" style="opacity: 1;" transform="translate(0, 92.6944001042447212)"><line style="stroke-width: 1px; stroke: #222;" x2="-6" y2="0" /><text dy=".32em" style="text-anchor: end;" x="-9" y="0">July</text></g><g class="tick" style="opacity: 1;" transform="translate(0, 111.4043717627129695)"><line style="stroke-width: 1px; stroke: #222;" x2="-6" y2="0" /><text dy=".32em" style="text-anchor: end;" x="-9" y="0">October</text></g><g class="tick" style="opacity: 1;" transform="translate(0, 130.1058735381307372)"><line style="stroke-width: 1px; stroke: #222;" x2="-6" y2="0" /><text dy=".32em" style="text-anchor: end;" x="-9" y="0">2016</text></g><g class="tick" style="opacity: 1;" transform="translate(0, 148.5956282372870305)"><line style="stroke-width: 1px; stroke: #222;" x2="-6" y2="0" /><text dy=".32em" style="text-anchor: end;" x="-9" y="0">April</text></g><g class="tick" style="opacity: 1;" transform="translate(0, 167.0938528194937760)"><line style="stroke-width: 1px; stroke: #222;" x2="-6" y2="0" /><text dy=".32em" style="text-anchor: end;" x="-9" y="0">July</text></g><g class="tick" style="opacity: 1;" transform="translate(0, 185.8038244779620243)"><line style="stroke-width: 1px; stroke: #222;" x2="-6" y2="0" /><text dy=".32em" style="text-anchor: end;" x="-9" y="0">October</text></g><g class="tick" style="opacity: 1;" transform="translate(0, 204.5053262533798204)"><line style="stroke-width: 1px; stroke: #222;" x2="-6" y2="0" /><text dy=".32em" style="text-anchor: end;" x="-9" y="0">2017</text></g><g class="tick" style="opacity: 1;" transform="translate(0, 222.7918037593250062)"><line style="stroke-width: 1px; stroke: #222;" x2="-6" y2="0" /><text dy=".32em" style="text-anchor: end;" x="-9" y="0">April</text></g><g class="tick" style="opacity: 1;" transform="translate(0, 241.2900283415317517)"><line style="stroke-width: 1px; stroke: #222;" x2="-6" y2="0" /><text dy=".32em" style="text-anchor: end;" x="-9" y="0">July</text></g><g class="tick" style="opacity: 1;" transform="translate(0, 260.0000000000000000)"><line style="stroke-width: 1px; stroke: #222;" x2="-6" y2="0" /><text dy=".32em" style="text-anchor: end;" x="-9" y="0">October</text></g></g><g class="link-layer"><path class="link" d="M 0 14.229403524774408 C 20.0 14.229403524774408 20.0 14 40 14" style="stroke: rgb(31, 119, 180); stroke-width: 2; fill: none;" /><path class="link" d="M 0 222.58852656611396 C 20.0 222.58852656611396 20.0 220 40 220" style="stroke: rgb(255, 127, 14); stroke-width: 2; fill: none;" /><path class="link" d="M 0 236.00482131804412 C 20.0 236.00482131804412 20.0 258 40 258 L 249 258 C 269.0 258 269.0 258 289 258" style="stroke: rgb(44, 160, 44); stroke-width: 2; fill: none;" /><path class="link" d="M 0 88.22230185360132 C 20.0 88.22230185360132 20.0 88 40 88 L 249 88 C 269.0 88 269.0 88 289 88" style="stroke: rgb(214, 39, 40); stroke-width: 2; fill: none;" /><path class="link" d="M 0 121.36495423005505 C 20.0 121.36495423005505 20.0 121 40 121" style="stroke: rgb(148, 103, 189); stroke-width: 2; fill: none;" /><path class="link" d="M 0 216.0921262664104 C 20.0 216.0921262664104 20.0 208 40 208 L 249 208 C 269.0 208 269.0 208 289 208" style="stroke: rgb(140, 86, 75); stroke-width: 2; fill: none;" /><path class="link" d="M 0 194.34146659282666 C 20.0 194.34146659282666 20.0 183 40 183 L 249 183 C 269.0 183 269.0 183 289 183" style="stroke: rgb(227, 119, 194); stroke-width: 2; fill: none;" /><path class="link" d="M 0 191.08903150144965 C 20.0 191.08903150144965 20.0 170 40 170" style="stroke: rgb(127, 127, 127); stroke-width: 2; fill: none;" /><path class="link" d="M 0 237.42776167052153 C 20.0 237.42776167052153 20.0 270 40 270" style="stroke: rgb(188, 189, 34); stroke-width: 2; fill: none;" /><path class="link" d="M 0 183.15275108316774 C 20.0 183.15275108316774 20.0 158 40 158 L 249 158 C 269.0 158 269.0 158 289 158" style="stroke: rgb(23, 190, 207); stroke-width: 2; fill: none;" /><path class="link" d="M 0 234.78515815877773 C 20.0 234.78515815877773 20.0 233 40 233 L 249 233 C 269.0 233 269.0 233 289 233" style="stroke: rgb(31, 119, 180); stroke-width: 2; fill: none;" /><path class="link" d="M 0 234.98843535198878 C 20.0 234.98843535198878 20.0 245 40 245" style="stroke: rgb(255, 127, 14); stroke-width: 2; fill: none;" /><path class="link" d="M 0 258.57705964752256 C 20.0 258.57705964752256 20.0 283 40 283 L 249 283 C 269.0 283 269.0 283 289 283" style="stroke: rgb(44, 160, 44); stroke-width: 2; fill: none;" /><path class="link" d="M 0 215.88884907319934 C 20.0 215.88884907319934 20.0 195 40 195" style="stroke: rgb(214, 39, 40); stroke-width: 2; fill: none;" /></g><g class="label-layer"><g class="label-g" transform="translate(40, 5)"><rect class="label-bg" height="18.0" rx="2" ry="2" style="fill:rgb(31, 119, 180);" width="77" /><text class="label-text" dx="0.15em" dy="0.85em" style="fill: rgb(255, 255, 255);" x="2" y="4">XYZ{GAN \cite{Goodfellow2014}}</text></g><g class="label-g" transform="translate(40, 211)"><rect class="label-bg" height="18.0" rx="2" ry="2" style="fill:rgb(255, 127, 14);" width="110" /><text class="label-text" dx="0.15em" dy="0.85em" style="fill: rgb(255, 255, 255);" x="2" y="4">XYZ{WGAN-GP \cite{Gulrajaniy17ImprovedWasserstein}}</text></g><g class="label-g" transform="translate(289, 249)"><rect class="label-bg" height="18.0" rx="2" ry="2" style="fill:rgb(44, 160, 44);" width="209" /><text class="label-text" dx="0.15em" dy="0.85em" style="fill: rgb(255, 255, 255);" x="2" y="4">XYZ{Vocab Distribution Generation \cite{press2017langwasserstein}}</text></g><g class="label-g" transform="translate(289, 79)"><rect class="label-bg" height="18.0" rx="2" ry="2" style="fill:rgb(214, 39, 40);" width="153" /><text class="label-text" dx="0.15em" dy="0.85em" style="fill: rgb(255, 255, 255);" x="2" y="4">XYZ{Scheduled Sampling \cite{bengio2015scheduled}}</text></g><g class="label-g" transform="translate(40, 112)"><rect class="label-bg" height="18.0" rx="2" ry="2" style="fill:rgb(148, 103, 189);" width="148" /><text class="label-text" dx="0.15em" dy="0.85em" style="fill: rgb(255, 255, 255);" x="2" y="4">XYZ{VAE-LSTM-LSTM \cite{Bowman2016VAE}}</text></g><g class="label-g" transform="translate(289, 199)"><rect class="label-bg" height="18.0" rx="2" ry="2" style="fill:rgb(140, 86, 75);" width="141" /><text class="label-text" dx="0.15em" dy="0.85em" style="fill: rgb(255, 255, 255);" x="2" y="4">XYZ{VAE-LSTM-CNN \cite{Yang2017ImprovedVAE}}</text></g><g class="label-g" transform="translate(289, 174)"><rect class="label-bg" height="18.0" rx="2" ry="2" style="fill:rgb(227, 119, 194);" width="93" /><text class="label-text" dx="0.15em" dy="0.85em" style="fill: rgb(255, 255, 255);" x="2" y="4">XYZ{GSGAN \cite{kusner2016gans}}</text></g><g class="label-g" transform="translate(40, 161)"><rect class="label-bg" height="18.0" rx="2" ry="2" style="fill:rgb(127, 127, 127);" width="139" /><text class="label-text" dx="0.15em" dy="0.85em" style="fill: rgb(255, 255, 255);" x="2" y="4">XYZ{Professor Forcing \cite{lamb2016professor}}</text></g><g class="label-g" transform="translate(40, 261)"><rect class="label-bg" height="18.0" rx="2" ry="2" style="fill:rgb(188, 189, 34);" width="100" /><text class="label-text" dx="0.15em" dy="0.85em" style="fill: rgb(255, 255, 255);" x="2" y="4">XYZ{TextGAN \cite{Zhang2017TextGAN}}</text></g><g class="label-g" transform="translate(289, 149)"><rect class="label-bg" height="18.0" rx="2" ry="2" style="fill:rgb(23, 190, 207);" width="95" /><text class="label-text" dx="0.15em" dy="0.85em" style="fill: rgb(255, 255, 255);" x="2" y="4">XYZ{SeqGAN \cite{SeqGAN}}</text></g><g class="label-g" transform="translate(289, 224)"><rect class="label-bg" height="18.0" rx="2" ry="2" style="fill:rgb(31, 119, 180);" width="94" /><text class="label-text" dx="0.15em" dy="0.85em" style="fill: rgb(255, 255, 255);" x="2" y="4">XYZ{ORGAN \cite{ORGAN}}</text></g><g class="label-g" transform="translate(40, 236)"><rect class="label-bg" height="18.0" rx="2" ry="2" style="fill:rgb(255, 127, 14);" width="104" /><text class="label-text" dx="0.15em" dy="0.85em" style="fill: rgb(255, 255, 255);" x="2" y="4">XYZ{RankGAN \cite{lin2017adversarial}}</text></g><g class="label-g" transform="translate(289, 274)"><rect class="label-bg" height="18.0" rx="2" ry="2" style="fill:rgb(44, 160, 44);" width="102" /><text class="label-text" dx="0.15em" dy="0.85em" style="fill: rgb(255, 255, 255);" x="2" y="4">XYZ{LeakGAN \cite{Guo2018}}</text></g><g class="label-g" transform="translate(40, 186)"><rect class="label-bg" height="18.0" rx="2" ry="2" style="fill:rgb(214, 39, 40);" width="100" /><text class="label-text" dx="0.15em" dy="0.85em" style="fill: rgb(255, 255, 255);" x="2" y="4">XYZ{MaliGAN \cite{Che2017}}</text></g></g><g class="dot-layer"><circle class="dot" cy="14.229403524774408" r="3" style="fill: rgb(31, 119, 180);" /><circle class="dot" cy="222.58852656611396" r="3" style="fill: rgb(255, 127, 14);" /><circle class="dot" cy="236.00482131804412" r="3" style="fill: rgb(44, 160, 44);" /><circle class="dot" cy="88.22230185360132" r="3" style="fill: rgb(214, 39, 40);" /><circle class="dot" cy="121.36495423005505" r="3" style="fill: rgb(148, 103, 189);" /><circle class="dot" cy="216.0921262664104" r="3" style="fill: rgb(140, 86, 75);" /><circle class="dot" cy="194.34146659282666" r="3" style="fill: rgb(227, 119, 194);" /><circle class="dot" cy="191.08903150144965" r="3" style="fill: rgb(127, 127, 127);" /><circle class="dot" cy="237.42776167052153" r="3" style="fill: rgb(188, 189, 34);" /><circle class="dot" cy="183.15275108316774" r="3" style="fill: rgb(23, 190, 207);" /><circle class="dot" cy="234.78515815877773" r="3" style="fill: rgb(31, 119, 180);" /><circle class="dot" cy="234.98843535198878" r="3" style="fill: rgb(255, 127, 14);" /><circle class="dot" cy="258.57705964752256" r="3" style="fill: rgb(44, 160, 44);" /><circle class="dot" cy="215.88884907319934" r="3" style="fill: rgb(214, 39, 40);" /></g></g></g></svg>